<?xml version="1.0" standalone="no"?><!DOCTYPE svg PUBLIC "-//W3C//DTD SVG 1.1//EN" "http://www.w3.org/Graphics/SVG/1.1/DTD/svg11.dtd"><svg t="1682404211878" class="icon" viewBox="0 0 1028 1024" version="1.1" xmlns="http://www.w3.org/2000/svg" p-id="7699" xmlns:xlink="http://www.w3.org/1999/xlink" width="128.5" height="128"><path d="M738.0248 725.377248m-290.441994 0a290.441994 290.441994 0 1 0 580.883988 0 290.441994 290.441994 0 1 0-580.883988 0Z" fill="#C5E3FF" p-id="7700"></path><path d="M126.575896 864.098809m-126.575896 0a126.575896 126.575896 0 1 0 253.151791 0 126.575896 126.575896 0 1 0-253.151791 0Z" fill="#FFDEA4" p-id="7701"></path><path d="M265.247268 43.363035m-43.363035 0a43.363035 43.363035 0 1 0 86.726069 0 43.363035 43.363035 0 1 0-86.726069 0Z" fill="#C5E3FF" p-id="7702"></path><path d="M799.907465 1023.849434H245.322355a100.377395 100.377395 0 0 1-100.377396-100.377396V462.48885a30.113219 30.113219 0 0 1 30.113219-30.113219h695.113463a30.113219 30.113219 0 0 1 30.113219 30.113219V923.472038a100.377395 100.377395 0 0 1-100.377395 100.377396zM175.058178 452.45111a10.03774 10.03774 0 0 0-10.03774 10.03774V923.472038a80.301916 80.301916 0 0 0 80.301917 80.301917h554.58511a80.301916 80.301916 0 0 0 80.301916-80.301917V462.48885a10.03774 10.03774 0 0 0-10.03774-10.03774z" fill="#32426B" p-id="7703"></path><path d="M601.762486 844.424839l-60.226437-147.404205a66.449836 66.449836 0 1 0-38.293977 0l-60.226437 147.404205a32.672842 32.672842 0 0 0 30.113219 45.169828h97.817771a32.672842 32.672842 0 0 0 30.815861-45.169828z" fill="#FFC145" p-id="7704"></path><path d="M571.498701 899.431652H473.680929a42.710582 42.710582 0 0 1-39.548694-58.770965L490.293388 702.641768a76.487575 76.487575 0 1 1 64.592854 0l56.161153 137.918542a42.710582 42.710582 0 0 1-39.548694 58.770965zM522.564721 577.170024a55.809832 55.809832 0 0 0-37.541146 14.353968 56.412096 56.412096 0 0 0 21.330197 96.061167l10.589815 3.161888L452.752242 848.188992a22.635103 22.635103 0 0 0 20.928687 31.167181h97.817772A22.635103 22.635103 0 0 0 592.226633 848.188992l-63.940401-157.592511 10.589816-3.161888a56.412096 56.412096 0 0 0-9.786796-110.264569 59.172475 59.172475 0 0 0-6.524531 0z" fill="#32426B" p-id="7705"></path><path d="M783.395383 347.054845a25.094349 25.094349 0 0 1-25.094349-25.094349v-6.825663c0-129.085331-102.083811-237.191786-231.169142-239.600843A235.886879 235.886879 0 0 0 286.878596 311.169926v131.243445h-50.188697V315.486154C236.689899 158.596285 361.358624 27.704161 518.148115 25.094349a286.075577 286.075577 0 0 1 290.341617 286.075577v10.79057a25.094349 25.094349 0 0 1-25.094349 25.094349z" fill="#5AA3F2" p-id="7706"></path><path d="M296.916336 452.45111h-70.264177V315.486154c0-163.113268 130.490614-297.769544 291.094447-300.22879a296.113317 296.113317 0 0 1 300.529922 296.113317v10.79057a35.132088 35.132088 0 1 1-70.264177 0v-7.026418C748.263295 190.717051 648.99005 87.830221 526.981326 85.320786a225.84914 225.84914 0 0 0-230.06499 225.84914z m-50.188698-20.075479h30.113219V311.169926a245.924619 245.924619 0 0 1 250.49179-245.924619c132.899672 2.509435 240.905749 114.530608 240.905749 249.638583v6.825663a15.056609 15.056609 0 1 0 30.113219 0V311.169926a276.037838 276.037838 0 0 0-280.052933-276.037838c-149.763074 2.30868-271.571043 127.981179-271.571044 280.153311z" fill="#32426B" p-id="7707"></path></svg>